<?xml version="1.0" standalone="no"?>
<!DOCTYPE svg PUBLIC "-//W3C//DTD SVG 20010904//EN"
 "http://www.w3.org/TR/2001/REC-SVG-20010904/DTD/svg10.dtd">
<svg version="1.0" xmlns="http://www.w3.org/2000/svg"
 width="445.000000pt" height="445.000000pt" viewBox="0 0 445.000000 445.000000"
 preserveAspectRatio="xMidYMid meet">
<metadata>
Created by potrace 1.14, written by Peter Selinger 2001-2017
</metadata>
<g transform="translate(0.000000,445.000000) scale(0.100000,-0.100000)"
fill="#000000" stroke="none">
<path d="M2271 4348 c-52 -20 -146 -102 -136 -118 3 -4 -2 -13 -9 -20 -8 -6
-15 -19 -15 -28 -5 -119 -5 -120 -26 -115 -98 25 -189 1 -260 -71 -104 -104
-103 -267 1 -368 40 -39 41 -44 12 -54 -76 -23 -148 -128 -153 -222 -3 -58 17
-141 39 -154 6 -4 7 -8 2 -8 -5 0 10 -18 32 -40 39 -36 42 -43 39 -82 -4 -44
17 -131 37 -156 6 -7 20 -23 30 -34 11 -13 18 -33 17 -52 -1 -17 -2 -35 -3
-41 -1 -21 13 -80 22 -91 6 -6 7 -13 4 -17 -3 -3 22 -33 56 -68 53 -54 60 -66
54 -88 -8 -30 -6 -23 -34 -126 -12 -44 -23 -87 -25 -95 -2 -8 -11 -36 -19 -62
-8 -27 -12 -48 -9 -48 3 0 0 -7 -7 -15 -7 -8 -10 -15 -7 -15 4 0 0 -18 -8 -40
-8 -22 -14 -42 -15 -45 0 -3 0 -6 -1 -7 0 -2 -2 -12 -4 -23 -3 -11 -10 -40
-17 -63 l-13 -44 -32 31 c-18 17 -37 31 -42 31 -5 0 -11 3 -13 8 -4 9 -121 87
-128 85 -3 0 -23 9 -45 21 -60 33 -170 70 -270 91 -66 14 -251 13 -311 -1 -32
-9 -66 -16 -74 -17 -87 -13 -235 -100 -318 -187 -35 -37 -89 -138 -96 -180 -3
-14 -5 -25 -6 -25 -9 0 -23 -138 -23 -220 0 -71 18 -300 23 -300 1 0 4 -16 7
-35 2 -19 16 -82 29 -140 14 -58 27 -116 30 -130 6 -26 6 -103 0 -130 -11 -54
-31 -109 -49 -134 -23 -32 -78 -85 -89 -86 -3 0 -39 -15 -80 -33 -40 -19 -93
-42 -118 -52 -54 -21 -67 -26 -145 -60 l-60 -25 45 5 c25 4 61 8 80 10 56 5
124 16 132 21 4 3 27 6 50 9 24 2 72 11 108 20 101 26 153 37 173 38 9 1 17 5
17 9 0 4 3 7 8 6 4 -1 26 2 50 6 128 24 159 25 222 9 85 -22 132 -33 165 -39
52 -11 60 -12 60 -14 0 -2 36 -9 90 -16 28 -3 53 -8 56 -10 35 -21 459 -23
494 -2 6 3 26 9 45 13 86 18 200 102 255 190 11 17 22 32 25 35 3 3 16 28 29
55 36 77 41 88 46 110 2 11 9 40 16 65 13 54 18 105 18 185 1 55 -5 150 -9
150 -1 0 -4 14 -6 30 -4 28 -11 49 -30 100 -4 11 -6 23 -6 28 1 4 -11 36 -28
72 -16 35 -30 69 -30 75 0 5 -5 10 -11 10 -5 0 -7 5 -4 10 3 6 2 10 -3 10 -5
0 -13 8 -16 18 -13 34 -37 72 -47 72 -5 0 -9 6 -9 13 0 7 -11 25 -26 40 -25
28 -25 47 2 47 8 0 14 5 14 10 0 6 3 9 8 8 4 -1 84 36 177 82 94 46 172 85
175 86 3 1 15 5 28 9 12 4 22 12 22 17 0 5 4 7 9 3 5 -3 12 -1 16 5 4 6 11 8
16 5 5 -4 9 -2 9 3 0 9 23 19 64 28 11 3 27 10 35 17 9 7 34 19 56 26 22 8 51
18 65 24 14 6 30 11 35 13 46 14 59 16 52 9 -9 -10 51 -75 70 -75 7 0 13 -4
13 -9 0 -8 13 -14 60 -27 19 -6 119 -7 143 -2 9 2 22 9 29 16 9 9 16 8 30 -5
10 -9 18 -22 18 -29 0 -18 68 -74 118 -96 48 -22 148 -26 181 -8 14 7 22 6 30
-4 6 -7 8 -16 4 -19 -3 -4 -1 -7 5 -7 7 0 12 -6 12 -12 0 -22 88 -96 134 -111
89 -31 194 -8 264 56 33 31 73 100 75 133 l2 27 90 2 c73 0 98 5 131 23 91 50
139 139 135 250 -1 36 3 47 27 67 51 43 77 109 77 195 -1 62 -5 82 -23 107
-12 17 -22 34 -22 38 0 9 -84 85 -95 86 -33 1 -69 27 -86 63 -24 47 -77 106
-96 106 -7 0 -13 4 -13 8 0 23 -154 48 -190 30 -8 -3 -36 -17 -62 -29 -27 -12
-48 -26 -48 -31 0 -15 -21 -8 -27 10 -20 54 -130 122 -202 125 -27 1 -37 5
-34 14 3 7 9 13 14 13 5 0 9 6 9 14 0 8 4 16 9 18 14 5 38 99 36 145 -3 73
-73 187 -126 205 -8 3 -2 22 16 58 21 42 27 68 27 115 -1 75 -5 102 -20 117
-7 7 -12 17 -12 22 -1 32 -102 110 -155 121 -49 10 -135 6 -158 -7 -12 -7 -25
-11 -29 -10 -3 1 -28 -18 -53 -43 -38 -35 -52 -43 -74 -39 -54 10 -87 10 -127
-1 l-40 -12 0 73 c0 85 -27 148 -84 202 -34 31 -105 66 -124 60 -9 -3 -21 28
-32 82 -3 14 -9 27 -15 28 -5 2 -9 9 -9 16 0 17 -57 70 -104 96 -55 30 -146
34 -215 8z m-77 -1843 c6 -11 21 -34 33 -51 20 -29 20 -32 5 -46 -9 -8 -26
-28 -37 -43 -11 -16 -30 -41 -42 -56 -13 -15 -23 -32 -23 -38 0 -6 -3 -11 -7
-11 -5 0 -24 -25 -42 -55 -19 -30 -39 -55 -44 -55 -5 0 -4 7 3 15 7 8 10 15 7
15 -4 0 0 19 18 90 2 8 4 15 5 15 1 0 4 11 5 25 2 14 13 61 24 105 11 44 17
83 15 87 -3 4 0 8 6 8 6 0 8 5 5 11 -5 7 4 9 25 7 20 -2 37 -11 44 -23z m479
-57 c12 -7 24 -15 27 -18 3 -3 17 -11 32 -19 17 -9 25 -18 20 -25 -5 -6 -10
-33 -11 -61 -2 -45 -16 -67 -41 -70 -5 0 -128 -51 -205 -85 -22 -9 -56 -23
-75 -30 -19 -7 -40 -17 -47 -23 -7 -5 -17 -6 -23 -2 -5 3 -10 2 -10 -4 0 -10
-38 -27 -52 -23 -5 1 -8 -2 -8 -6 0 -7 -63 -35 -82 -37 -3 0 -10 -4 -15 -8 -7
-8 -70 -37 -80 -37 -4 0 44 67 57 80 3 3 25 34 50 70 24 36 50 71 56 78 7 6
15 21 19 31 3 11 12 22 20 25 8 3 15 11 15 18 1 7 8 22 18 33 14 17 30 20 92
21 84 0 133 20 185 72 36 37 30 35 58 20z"/>
</g>
</svg>
